<svg width="32" height="32" viewBox="0 0 32 32" fill="none" xmlns="http://www.w3.org/2000/svg">
<circle cx="16" cy="16" r="14" fill="#030F58"/>
<path d="M13.8522 23C13.08 23 12.4065 22.8398 11.8318 22.5195C11.2571 22.1992 10.8082 21.7499 10.4849 21.1716C10.1616 20.5844 10 19.8904 10 19.0896C10 18.3333 10.1347 17.7016 10.4041 17.1945C10.6735 16.6784 11.0192 16.2602 11.4412 15.9399C11.8722 15.6196 12.3392 15.375 12.842 15.2059C13.3538 15.0369 13.8522 14.9123 14.3371 14.8322L18.0815 14.2583C18.0995 13.7423 18.0007 13.3419 17.7852 13.0572C17.5697 12.7636 17.2554 12.5589 16.8424 12.4433C16.4383 12.3276 15.9534 12.2698 15.3877 12.2698C15.0824 12.2698 14.7501 12.2965 14.391 12.3499C14.0318 12.3943 13.6546 12.4655 13.2595 12.5634C12.8734 12.6613 12.4694 12.7814 12.0473 12.9237C11.6343 13.0661 11.2167 13.2396 10.7947 13.4442L10.6061 10.041C10.9384 9.92533 11.32 9.80521 11.751 9.68065C12.182 9.55609 12.6489 9.44487 13.1518 9.347C13.6546 9.24023 14.1844 9.1557 14.7412 9.09342C15.3069 9.03114 15.886 9 16.4787 9C17.6011 9 18.5574 9.1646 19.3476 9.4938C20.1468 9.81411 20.7574 10.3213 21.1794 11.0153C21.6015 11.7092 21.8125 12.6168 21.8125 13.7378C21.8125 14.1738 21.8125 14.7077 21.8125 15.3394C21.8125 15.9711 21.8125 16.5361 21.8125 17.0343V18.3022C21.8125 18.9784 21.8125 19.6768 21.8125 20.3975C21.8125 21.1093 21.8125 21.87 21.8125 22.6797H18.3778L18.1219 20.9047H17.8121C17.5697 21.2428 17.2644 21.5764 16.8962 21.9056C16.5281 22.2259 16.0881 22.4884 15.5763 22.693C15.0734 22.8977 14.4987 23 13.8522 23ZM15.455 19.9171C15.7693 19.9171 16.0836 19.8459 16.3979 19.7035C16.7122 19.5523 17.004 19.3432 17.2734 19.0763C17.5428 18.8004 17.7762 18.4757 17.9738 18.102V16.0601C17.866 16.1401 17.7268 16.2158 17.5562 16.2869C17.3946 16.3492 17.1522 16.4204 16.8289 16.5005C16.5146 16.5717 16.0746 16.6651 15.5089 16.7807C15.1856 16.843 14.9073 16.9498 14.6738 17.101C14.4404 17.2523 14.2563 17.448 14.1216 17.6883C13.9959 17.9196 13.933 18.1954 13.933 18.5157C13.933 19.0229 14.0857 19.3832 14.391 19.5968C14.7052 19.8103 15.0599 19.9171 15.455 19.9171Z" fill="#B8C4FF"/>
</svg>
