<svg fill="none" height="32" viewBox="0 0 32 32" width="32" xmlns="http://www.w3.org/2000/svg"><path clip-rule="evenodd" d="m16 30c7.732 0 14-6.268 14-14 0-7.73199-6.268-14-14-14-7.73199 0-14 6.26801-14 14 0 7.732 6.26801 14 14 14zm-4.1682-7.4805c.5747.3203 1.2482.4805 2.0204.4805.6465 0 1.2212-.1023 1.7241-.307.5118-.2046.9518-.4671 1.3199-.7874.3682-.3292.6735-.6628.9159-1.0009h.3098l.2559 1.775h3.4347v-2.2822-2.0953-1.2679-1.6949-1.6016c0-1.121-.211-2.0286-.6331-2.7225-.422-.694-1.0326-1.20119-1.8318-1.5215-.7902-.3292-1.7465-.4938-2.8689-.4938-.5927 0-1.1718.03114-1.7375.09342-.5568.06228-1.0866.14681-1.5894.25358-.5029.09787-.9698.20909-1.4008.33365s-.8126.24468-1.1449.36035l.1886 3.4032c.422-.2046.8396-.3781 1.2526-.5205.4221-.1423.8261-.2624 1.2122-.3603.3951-.0979.7723-.1691 1.1315-.2135.3591-.0534.6914-.0801.9967-.0801.5657 0 1.0506.0578 1.4547.1735.413.1156.7273.3203.9428.6139.2155.2847.3143.6851.2963 1.2011l-3.7444.5739c-.4849.0801-.9833.2047-1.4951.3737-.5028.1691-.9698.4137-1.4008.734-.422.3203-.7677.7385-1.0371 1.2546-.2694.5071-.4041 1.1388-.4041 1.8951 0 .8008.1616 1.4948.4849 2.082.3233.5783.7722 1.0276 1.3469 1.3479zm4.5661-2.816c-.3143.1424-.6286.2136-.9429.2136-.3951 0-.7498-.1068-1.064-.3203-.3053-.2136-.458-.5739-.458-1.0811 0-.3203.0629-.5961.1886-.8274.1347-.2403.3187-.436.5522-.5873.2335-.1512.5118-.258.8351-.3203.5657-.1156 1.0057-.209 1.32-.2802.3233-.0801.5657-.1513.7273-.2136.1706-.0711.3098-.1468.4176-.2268v2.0419c-.1976.3737-.431.6984-.7004.9743-.2694.2669-.5612.476-.8755.6272z" fill="#000" fill-rule="evenodd"/></svg>