<svg width="32" height="32" viewBox="0 0 32 32" fill="none" xmlns="http://www.w3.org/2000/svg">
<path d="M13.5031 26C12.3999 26 11.4379 25.7712 10.6169 25.3136C9.7959 24.8561 9.1545 24.2142 8.6927 23.388C8.2309 22.5491 8 21.5577 8 20.4137C8 19.3333 8.19242 18.4309 8.57725 17.7064C8.96209 16.9692 9.45596 16.3718 10.0589 15.9142C10.6746 15.4566 11.3416 15.1071 12.06 14.8656C12.7912 14.6241 13.5031 14.4461 14.1958 14.3317L19.545 13.5119C19.5707 12.7747 19.4296 12.2027 19.1217 11.796C18.8139 11.3765 18.3649 11.0842 17.7748 10.919C17.1975 10.7537 16.5048 10.6711 15.6967 10.6711C15.2605 10.6711 14.7859 10.7092 14.2728 10.7855C13.7597 10.8491 13.2209 10.9507 12.6565 11.0906C12.1049 11.2304 11.5277 11.402 10.9247 11.6053C10.3347 11.8087 9.73817 12.0566 9.13526 12.3489L8.86588 7.48713C9.34051 7.32189 9.88569 7.1503 10.5014 6.97236C11.1172 6.79441 11.7842 6.63553 12.5026 6.49571C13.2209 6.34318 13.9778 6.22243 14.7731 6.13346C15.5812 6.04449 16.4086 6 17.2553 6C18.8588 6 20.2249 6.23514 21.3538 6.70543C22.4954 7.16301 23.3677 7.88751 23.9706 8.87893C24.5735 9.87035 24.875 11.1668 24.875 12.7684C24.875 13.3912 24.875 14.1538 24.875 15.0562C24.875 15.9587 24.875 16.7658 24.875 17.4776V19.2888C24.875 20.2548 24.875 21.2526 24.875 22.2822C24.875 23.299 24.875 24.3858 24.875 25.5424H19.9684L19.6028 23.0067H19.1602C18.8139 23.4897 18.3777 23.9663 17.8518 24.4366C17.3258 24.8942 16.6973 25.2691 15.9661 25.5615C15.2477 25.8538 14.4267 26 13.5031 26ZM15.7929 21.5958C16.2419 21.5958 16.6908 21.4941 17.1398 21.2908C17.5888 21.0747 18.0057 20.776 18.3905 20.3947C18.7754 20.0006 19.1089 19.5367 19.3911 19.0029V16.0858C19.2372 16.2002 19.0383 16.3082 18.7946 16.4099C18.5637 16.4989 18.2174 16.6006 17.7556 16.715C17.3066 16.8167 16.678 16.9501 15.8699 17.1153C15.4081 17.2043 15.0104 17.3568 14.6769 17.5729C14.3434 17.789 14.0804 18.0686 13.888 18.4118C13.7084 18.7423 13.6186 19.1363 13.6186 19.5939C13.6186 20.3184 13.8367 20.8332 14.2728 21.1382C14.7218 21.4433 15.2285 21.5958 15.7929 21.5958Z" fill="black"/>
</svg>
